<svg xmlns:xlink="http://www.w3.org/1999/xlink" viewBox="0 0 631.1 103" width="631.1" height="103" focusable="false" role="img" aria-labelledby="title" xmlns="http://www.w3.org/2000/svg" class="r-4qtqp9 r-1u2r3iz r-dnmrzs r-bnwqim r-1plcrui r-lrvibr" data-testid="groupon-logo">
          <title id="title">Groupon Logo</title>
          <defs>
            <linearGradient id="linear-gradient" y1="51.5" x2="631.1" y2="51.5" gradientUnits="userSpaceOnUse">
              <stop offset="0%" stop-color="#00a80e"></stop>
              <stop offset="100%" stop-color="#6bf015"></stop>
            </linearGradient>
          <linearGradient id="linear-gradient" y1="51.5" x2="631.1" y2="51.5" gradientUnits="userSpaceOnUse">
              <stop offset="0%" stop-color="#00a80e"></stop>
              <stop offset="100%" stop-color="#6bf015"></stop>
            </linearGradient></defs>
          <path d="M101.1,52.1c0,11-2.9,20.5-8.6,28.6a50.85,50.85,0,0,1-42,21.8c-14.7,0-26.9-5.3-36.5-15.8C4.7,77,0,64.9,0,50.2A48.66,48.66,0,0,1,15,14.7,49.12,49.12,0,0,1,50.9,0C72,0,90.3,13,98.2,34.1H70.8c-6.1-6.4-12.5-9.7-20-9.7A26,26,0,0,0,25,50.2C25,66,37.1,77.7,50.8,77.7c9.3,0,17.2-4.6,22.2-13.2H44.6V44.7h56.3C100.8,47.8,101.1,50.4,101.1,52.1Zm6.1,49h24V69.2l19,31.8h29.7l-24-33.7c14-3.9,22.2-16.1,22.2-31.9,0-12.1-4.6-21.4-13.2-27.5-6.8-4.6-14.7-5.3-25.1-5.3H107.2v98.5Zm28.6-52.9-4.7-.1V24.8h6.8c10.8,0,15.8,3.3,15.8,11.5,0,8.6-6,11.9-17.9,11.9Zm46.6,2.9c0,14.7,4.7,26.8,14,36.5C206,97.7,218.2,103,232.9,103A49.64,49.64,0,0,0,269,87.6c9.3-9.2,14.3-22.1,14.3-36.1a49.53,49.53,0,0,0-15.4-35.9A48.52,48.52,0,0,0,232.7.9c-14.1,0-26.2,4.6-35.9,14.3S181.8,37.4,182.4,51.1Zm24.4,0a25.85,25.85,0,0,1,51.7,0c0,16-11.8,27.5-25.8,27.5C219,78.6,206.5,66.9,206.8,51.1ZM313.7,2.6H289.3V64.2c0,24.7,13.7,38.3,35.9,38.3,21.8,0,36.5-14.3,36.5-38.3V2.6h-24V63.1c0,11.6-3.9,16.9-12.5,16.9-8,0-11.5-5.9-11.5-16.9V2.6Zm55.2,98.6h23.9V69.3h6.8c10.4,0,18.3-.9,24.4-4.4,10.1-6.2,15.8-16.5,15.8-29.5,0-12.1-4.6-21.4-13.2-27.5-6.8-4.6-14.7-5.3-25.1-5.3H368.9v98.6Zm28.6-53-4.3-.1V24.8h6.4c10.8,0,15.8,3.3,15.8,11.5,0,8.6-6,11.9-17.9,11.9Zm46.2,2.9c0,14.7,4.7,26.8,14,36.5,9.6,10.1,21.8,15.4,36.5,15.4a49.64,49.64,0,0,0,36.1-15.4c9.3-9.2,14.3-22.1,14.3-36.1a49.53,49.53,0,0,0-15.4-35.9A48.52,48.52,0,0,0,494,.9c-14.1,0-26.2,4.6-35.9,14.3S443.1,37.4,443.7,51.1Zm24.3,0a25.85,25.85,0,0,1,51.7,0c0,16-11.8,27.5-25.8,27.5C480.3,78.6,467.7,66.9,468,51.1Zm105.5,50.1V46.4L610,101.2h21.1V2.6h-24V57.4L571,2.6H549.2v98.6Z" fill="url(&quot;#linear-gradient&quot;)"></path>
        </svg>