<svg role="img" width="27" height="32" viewBox="0 0 27 32" version="1.1" xmlns="http://www.w3.org/2000/svg" xmlns:xlink="http://www.w3.org/1999/xlink" focusable="false" aria-labelledby="top-badge top-badge-desc">
        <title id="top-badge" class="iconTitle">top-rated-merchant</title>
        <desc id="top-badge-desc" class="iconDesc">Top Rated Merchant</desc>
        <g stroke="none" stroke-width="1" fill="none" fill-rule="evenodd">
            <g transform="translate(-14.000000, -3024.000000)" fill="none">
                <g transform="translate(0.000000, 2995.000000)" fill="none">
                    <g transform="translate(12.000000, 29.000000)" fill="none">
                        <g transform="translate(2.000000, 0.000000)" fill="none">
                            <path d="M18.3498994,13.1764706 L14.1999512,4.02454427 L16.0248839,0 L26.0999508,0 L20.1250698,13.1764706 L18.3498994,13.1764706 Z" fill="#0093EA"></path>
                            <polygon fill="#57ADE0" points="0 0 10.0761246 0 16.0516328 13.1764706 5.97550822 13.1764706"></polygon>
                        </g>
                        <g transform="translate(4.000000, 8.000000)" fill="none">
                            <circle fill="#FFC120" cx="12" cy="12" r="12"></circle>
                            <path d="M9.71084465,23.7819111 L19.3544756,2.51711346 C22.1811132,4.71249453 24,8.14383538 24,12 C24,18.627417 18.627417,24 12,24 C11.2171788,24 10.451865,23.9250417 9.71084465,23.7819111 Z" fill="#FBAA1A"></path>
                            <path d="M17.9610871,10.522875 C17.8718371,10.25625 17.6408371,10.062 17.3631496,10.0194375 L14.1312121,9.5255625 L12.6790246,6.4314375 C12.5554621,6.1681875 12.2907121,6 12.0000871,6 C11.7094621,6 11.4448996,6.168 11.3211496,6.4314375 L9.8687746,9.5255625 L6.6368371,10.0194375 C6.3589621,10.062 6.1283371,10.25625 6.0388996,10.522875 C5.9494621,10.7895 6.0169621,11.0833125 6.2134621,11.2845 L8.5740871,13.704 L8.0153371,17.1294375 C7.9692121,17.413125 8.0888371,17.69775 8.3235871,17.8633125 C8.4525871,17.9540625 8.6038996,18 8.7555871,18 C8.8800871,18 9.0051496,17.9690625 9.1183996,17.9064375 L12.0002746,16.3134375 L14.8823371,17.9064375 C14.9952121,17.9690625 15.1204621,18 15.2449621,18 C15.3964621,18 15.5479621,17.9540625 15.6767746,17.8633125 C15.9118996,17.69775 16.0313371,17.413125 15.9850246,17.1294375 L15.4264621,13.704 L17.7870871,11.2845 C17.9833996,11.0833125 18.0505246,10.7895 17.9610871,10.522875 L17.9610871,10.522875 Z" fill="#FFEFC7"></path>
                        </g>
                    </g>
                </g>
            </g>
        </g>
    </svg>