<svg xmlns:xlink="http://www.w3.org/1999/xlink" viewBox="0 0 238 153" fill="none" xmlns="http://www.w3.org/2000/svg" width="238"  height="153" >
                <path d="M141.705 4.07554e-06L184.696 5.95475e-06V43.5287L141.705 43.5287V4.07554e-06ZM48.4674 0L91.4587 1.87921e-06L91.4587 43.5287L48.4674 43.5287V0Z" fill="#2B2430"></path>
                <path d="M0.102174 120.85C13.1787 111.714 26.0761 104.37 38.7944 98.817C51.5126 93.4431 64.41 89.5023 77.4865 86.9944C90.7422 84.6657 104.625 83.5014 119.134 83.5014C133.823 83.5014 147.706 84.6657 160.782 86.9944C173.859 89.5023 186.756 93.4431 199.474 98.817C212.193 104.37 225 111.714 237.898 120.85V152.825C216.94 143.51 196.787 136.524 177.441 131.867C158.095 127.388 138.66 125.149 119.134 125.149C99.7883 125.149 80.3526 127.388 60.8274 131.867C41.4813 136.524 21.2396 143.51 0.102173 152.825L0.102174 120.85Z" fill="#2B2430"></path>
              </svg>